<svg xmlns="http://www.w3.org/2000/svg" viewBox="0 0 64 64" fill="none" shape-rendering="crispEdges">
  <g fill="none" stroke="#ffffff" stroke-width="1.25">
    <rect x="8.6"  y="8.6"  width="6" height="6" />
    <rect x="8.6"  y="16.6" width="6" height="6" />
    <rect x="8.6"  y="24.6" width="6" height="6" />
    <rect x="8.6"  y="32.6" width="6" height="6" />
    <rect x="8.6"  y="40.6" width="6" height="6" />
    <rect x="8.6"  y="48.6" width="6" height="6" />
    <rect x="8.6"  y="56.6" width="6" height="6" />
    <rect x="16.6" y="8.6"  width="6" height="6" />
    <rect x="16.6" y="16.6" width="6" height="6" />
    <rect x="16.6" y="24.6" width="6" height="6" />
    <rect x="16.6" y="32.6" width="6" height="6" />
    <rect x="16.6" y="40.6" width="6" height="6" />
    <rect x="16.6" y="48.6" width="6" height="6" />
    <rect x="16.6" y="56.6" width="6" height="6" />
    <rect x="24.6" y="32.6" width="6" height="6" />
    <rect x="32.6" y="32.6" width="6" height="6" />
    <rect x="40.6" y="32.6" width="6" height="6" />
    <rect x="40.6" y="40.6" width="6" height="6" />
    <rect x="40.6" y="48.6" width="6" height="6" />
    <rect x="40.6" y="56.6" width="6" height="6" />
    <rect x="48.6" y="32.6" width="6" height="6" />
    <rect x="48.6" y="40.6" width="6" height="6" />
    <rect x="48.6" y="48.6" width="6" height="6" />
    <rect x="48.6" y="56.6" width="6" height="6" />
  </g>
</svg>
