<svg width="158" height="48" viewBox="0 0 158 48" fill="none" xmlns="http://www.w3.org/2000/svg">
<g clip-path="url(#clip0_381_1895)">
<path d="M20.8342 11.0002C21.3825 10.9953 21.9262 11.1002 22.4338 11.3078C22.9415 11.5155 23.4033 11.8223 23.7912 12.2101C24.179 12.598 24.486 13.059 24.6936 13.5666C24.9012 14.0743 25.0051 14.6186 25.0002 15.1672V31.8342C25.0063 32.3829 24.903 32.9277 24.6955 33.4357C24.488 33.9439 24.1808 34.4055 23.7922 34.7931C23.4043 35.1809 22.9426 35.4872 22.4348 35.6945C21.927 35.9018 21.3826 36.0057 20.8342 36.0002H4.1672C3.61866 36.0057 3.0745 35.9018 2.56661 35.6945C2.05863 35.4871 1.59623 35.1811 1.20821 34.7931C0.820311 34.4053 0.514313 33.9435 0.306844 33.4357C0.0993721 32.9278 -0.00525647 32.3828 0.000203182 31.8342V15.1672C-0.00479545 14.6184 0.0990788 14.0739 0.305867 13.5656C0.514201 13.0573 0.821688 12.5965 1.20919 12.2082C1.59748 11.8207 2.05873 11.5141 2.56661 11.3068C3.07451 11.0995 3.61865 10.9951 4.1672 11.0002H20.8342ZM14.0002 19.5832L15.7502 20.0832L13.5832 30.0832L15.9172 31.0002L18.4172 20.5832L20.0002 20.9172L17.9172 16.0002L14.0002 19.5832ZM8.6672 22.5002L9.7502 22.8332L9.33321 28.5002L11.0002 29.1672L11.7502 23.2502L12.9172 23.5832L11.0002 20.0832L8.6672 22.5002ZM5.0002 24.6672L5.83321 24.9172V27.4172L7.1672 27.8332L7.2502 25.2502L8.08321 25.4172L6.6672 22.6672L5.0002 24.6672Z" fill="#111827"/>
<path d="M40.1667 18.8332C39.5294 18.4833 38.81 18.3106 38.0833 18.3332H33.75V29.2499H36.0833V25.7499H38C38.7533 25.7724 39.5 25.5999 40.1667 25.2499C40.745 24.9633 41.2134 24.4949 41.5 23.9166C41.8282 23.3311 42.0005 22.6711 42.0005 21.9999C42.0005 21.3287 41.8282 20.6687 41.5 20.0832C41.1857 19.5465 40.7225 19.1123 40.1667 18.8332ZM39.3333 22.9999C39.1785 23.2806 38.9474 23.5117 38.6667 23.6666C38.335 23.8466 37.9608 23.9332 37.5833 23.9166H36V20.1666H37.5833C37.9608 20.1499 38.335 20.2366 38.6667 20.4166C38.9475 20.5716 39.1783 20.8032 39.3333 21.0832C39.5033 21.3582 39.59 21.6766 39.5833 21.9999C39.59 22.3499 39.5033 22.6949 39.3333 22.9999ZM49.0833 21.4999C48.4161 21.1497 47.6699 20.9775 46.9167 20.9999C46.1645 20.9875 45.4207 21.1591 44.75 21.4999C44.1391 21.8479 43.6459 22.3702 43.3333 22.9999C42.9834 23.6971 42.8116 24.4701 42.8333 25.2499C42.8108 26.0032 42.9833 26.7499 43.3333 27.4166C43.6205 28.0636 44.1204 28.5929 44.75 28.9166C45.4249 29.2455 46.1659 29.4165 46.9167 29.4165C47.6675 29.4165 48.4084 29.2455 49.0833 28.9166C49.6944 28.5688 50.1877 28.0465 50.5 27.4166C50.8417 26.7457 51.0125 26.0024 51 25.2499C51.0127 24.471 50.8414 23.7001 50.5 22.9999C50.1877 22.37 49.6944 21.8477 49.0833 21.4999ZM48.5 26.4166C48.3558 26.7516 48.1583 27.0607 47.9167 27.3332C47.7941 27.4476 47.6498 27.536 47.4923 27.5933C47.3348 27.6506 47.1674 27.6755 47 27.6666C46.832 27.683 46.6625 27.6616 46.5039 27.6039C46.3452 27.5462 46.2015 27.4537 46.0833 27.3332C45.8239 27.0743 45.6247 26.7613 45.5 26.4166C45.3633 26.0148 45.3067 25.5901 45.3333 25.1666C45.3417 24.7449 45.3983 24.3257 45.5 23.9166C45.645 23.5824 45.8417 23.2724 46.0833 22.9999C46.2059 22.8856 46.3502 22.7971 46.5077 22.7399C46.6652 22.6826 46.8326 22.6577 47 22.6666C47.1679 22.6508 47.3373 22.6725 47.4958 22.7302C47.6543 22.7878 47.7981 22.8799 47.9167 22.9999C48.1767 23.2582 48.3758 23.5716 48.5 23.9166C48.6425 24.3166 48.7 24.7432 48.6667 25.1666C48.658 25.5882 48.6021 26.0074 48.5 26.4166ZM58.75 25.2499C58.9502 25.4248 59.1072 25.6438 59.2084 25.8896C59.3096 26.1354 59.3524 26.4014 59.3333 26.6666C59.3332 27.182 59.1568 27.6819 58.8333 28.0832C58.5143 28.5035 58.08 28.822 57.5833 28.9999C56.9667 29.2132 56.3192 29.3249 55.6667 29.3332C54.7595 29.363 53.8628 29.1316 53.0833 28.6666C52.7773 28.4614 52.5212 28.1901 52.3339 27.8729C52.1465 27.5556 52.0327 27.2003 52.0008 26.8332L54.2508 26.7499C54.3142 27.0549 54.4933 27.3232 54.7508 27.4999C55.0585 27.6645 55.402 27.7506 55.7508 27.7506C56.0997 27.7506 56.4432 27.6645 56.7508 27.4999C56.8557 27.444 56.9426 27.3595 57.0016 27.2563C57.0606 27.1531 57.0892 27.0353 57.0842 26.9166C57.0865 26.8191 57.0648 26.7225 57.0211 26.6353C56.9773 26.5481 56.9129 26.473 56.8333 26.4166C56.6172 26.2411 56.3584 26.1261 56.0833 26.0832L54.6667 25.8332C54.0046 25.7661 53.3862 25.4716 52.9167 24.9999C52.7216 24.8034 52.5691 24.5688 52.4687 24.3107C52.3684 24.0526 52.3223 23.7766 52.3333 23.4999C52.3314 23.0231 52.4769 22.5574 52.75 22.1666C53.0575 21.7348 53.4958 21.4134 54 21.2499C54.59 21.044 55.2086 20.9316 55.8333 20.9166C56.6883 20.8847 57.5323 21.1176 58.25 21.5832C58.5354 21.7831 58.7731 22.0437 58.946 22.3462C59.1189 22.6488 59.2227 22.9858 59.25 23.3332L57.0833 23.4999C57.0773 23.4041 57.0518 23.3105 57.0083 23.2249C56.9662 23.1386 56.9066 23.062 56.8333 22.9999C56.7773 22.9132 56.7041 22.8389 56.6183 22.7816C56.5324 22.7242 56.4357 22.6851 56.3342 22.6666C56.1269 22.5628 55.8993 22.5059 55.6675 22.4999C55.3442 22.493 55.0259 22.5798 54.7508 22.7499C54.6454 22.8053 54.558 22.8896 54.4988 22.9929C54.4396 23.0962 54.4111 23.2143 54.4167 23.3332C54.4229 23.429 54.4482 23.5226 54.4912 23.6085C54.5341 23.6944 54.5938 23.7708 54.6667 23.8332C54.906 24.0232 55.1957 24.1391 55.5 24.1666L57 24.4999C57.6374 24.5978 58.2395 24.8559 58.75 25.2499ZM64.9167 27.4166L65.25 29.0832C65.0792 29.1249 64.9125 29.1807 64.75 29.2499C64.5072 29.3233 64.253 29.3516 64 29.3332C63.5157 29.3466 63.0338 29.2615 62.5833 29.0832C62.1966 28.9532 61.8707 28.6865 61.6667 28.3332C61.4586 27.9188 61.3448 27.4635 61.3333 26.9999V22.7499H60.25V21.0832H61.3333V19.0832H63.5833V21.0832H65.0833V22.7499H63.5833V26.7499C63.5633 26.9216 63.5917 27.0949 63.6667 27.2499L63.9167 27.4999C64.0417 27.5749 64.1892 27.6049 64.3333 27.5832H64.6667C64.75 27.5832 64.8333 27.4166 64.9167 27.4166ZM73.25 18.3332L69.5 29.2499H72L72.8333 26.7499H76.75L77.5833 29.2499H80.0833L76.25 18.3332H73.25ZM73.4167 24.9166L74.75 20.7499H74.8333L76.1667 24.9166H73.4167ZM83.75 20.4999V21.0832H85.4167V22.7499H83.75V29.2499H81.5V22.7499H80.3333V21.0832H81.5V20.4999C81.472 19.9788 81.5872 19.4601 81.8333 18.9999C82.0732 18.635 82.3851 18.3231 82.75 18.0832C83.1941 17.8754 83.6765 17.7619 84.1667 17.7499C84.475 17.7324 84.7842 17.7607 85.0833 17.8332C85.3333 17.9166 85.5833 17.9166 85.75 17.9999L85.3333 19.6666C85.25 19.6666 85.1667 19.5832 85 19.5832H84.5833C84.25 19.5832 84 19.6666 83.9167 19.8332C83.8127 20.0405 83.7558 20.2681 83.75 20.4999ZM89.75 20.4999V21.0832H91.4167V22.7499H89.75V29.2499H87.5V22.7499H86.3333V21.0832H87.5V20.4999C87.4724 19.9789 87.5876 19.4602 87.8333 18.9999C88.0732 18.635 88.3851 18.3231 88.75 18.0832C89.1941 17.8754 89.6765 17.7619 90.1667 17.7499C90.475 17.7324 90.7842 17.7607 91.0833 17.8332C91.3333 17.9166 91.5833 17.9166 91.75 17.9999L91.3333 19.6666C91.25 19.6666 91.1667 19.5832 91 19.5832H90.5833C90.25 19.5832 90 19.6666 89.9167 19.8332C89.8127 20.0405 89.7558 20.2681 89.75 20.4999ZM94.8333 17.9999C94.9998 18.1633 95.1135 18.3727 95.16 18.6012C95.2065 18.8298 95.1836 19.067 95.0942 19.2824C95.004 19.4974 94.8517 19.6806 94.6567 19.8086C94.4618 19.9366 94.2332 20.0035 94 20.0007C93.8445 20.0159 93.6876 19.9934 93.5426 19.9353C93.3976 19.8771 93.2686 19.785 93.1667 19.6666C93.0009 19.5031 92.8878 19.2937 92.8418 19.0655C92.7959 18.8372 92.8192 18.6004 92.9087 18.3855C92.9983 18.1705 93.15 17.9873 93.3444 17.8592C93.5389 17.7311 93.7672 17.664 94 17.6666C94.3058 17.6891 94.5967 17.8057 94.8333 17.9999ZM92.8333 21.0832H95.0833V29.2499H92.8333V21.0832ZM97 18.3332H99.25V29.2499H97V18.3332ZM101.167 21.0832H103.417V29.2499H101.167V21.0832ZM103.167 17.9999C103.333 18.1633 103.447 18.3727 103.493 18.6012C103.54 18.8298 103.517 19.067 103.428 19.2824C103.337 19.4974 103.185 19.6806 102.99 19.8086C102.795 19.9366 102.566 20.0035 102.333 20.0007C102.178 20.0159 102.021 19.9934 101.876 19.9353C101.731 19.8771 101.602 19.785 101.5 19.6666C101.334 19.5031 101.221 19.2937 101.175 19.0655C101.129 18.8372 101.152 18.6004 101.242 18.3855C101.332 18.1705 101.483 17.9873 101.678 17.8592C101.872 17.7311 102.101 17.664 102.333 17.6666C102.636 17.7041 102.923 17.8191 103.167 17.9999ZM111.083 21.5832C110.766 21.3342 110.395 21.163 110 21.0832C109.563 20.9816 109.116 20.9257 108.667 20.9166C108.065 20.89 107.466 21.0042 106.917 21.2499C106.442 21.4282 106.014 21.7134 105.667 22.0832C105.365 22.4523 105.138 22.877 105 23.3332L107.083 23.4999C107.173 23.2291 107.348 22.9941 107.583 22.8332C107.885 22.6532 108.233 22.5666 108.583 22.5832C108.908 22.565 109.23 22.6528 109.5 22.8332C109.617 22.9171 109.71 23.0309 109.769 23.1628C109.828 23.2947 109.85 23.4399 109.833 23.5832C109.83 23.7377 109.771 23.8858 109.667 23.9999C109.464 24.1149 109.233 24.1724 109 24.1666C108.607 24.1925 108.217 24.2482 107.833 24.3332C107.44 24.3483 107.049 24.4041 106.667 24.4999C106.32 24.6031 105.984 24.7427 105.667 24.9166C105.383 25.1049 105.154 25.3632 105 25.6666C104.821 26.0286 104.735 26.4296 104.75 26.8332C104.721 27.3014 104.837 27.7671 105.083 28.1666C105.336 28.5299 105.681 28.8174 106.083 28.9999C106.534 29.1782 107.016 29.2632 107.5 29.2499C107.867 29.2416 108.231 29.1857 108.583 29.0832C108.884 28.996 109.166 28.8548 109.417 28.6666C109.653 28.5057 109.828 28.2716 109.917 27.9999H110V29.1666H112.167V23.6666C112.182 23.2362 112.096 22.8082 111.917 22.4166C111.682 22.0987 111.401 21.8178 111.083 21.5832ZM109.917 26.3332C109.923 26.6049 109.835 26.8699 109.667 27.0832C109.537 27.3136 109.331 27.4907 109.083 27.5832C108.8 27.7257 108.483 27.7832 108.167 27.7499C107.868 27.7696 107.572 27.6808 107.333 27.4999C107.143 27.327 107.024 27.0893 107 26.8332C106.989 26.6513 107.049 26.4722 107.167 26.3332C107.223 26.2469 107.297 26.1728 107.383 26.1155C107.469 26.0583 107.565 26.0189 107.667 25.9999C107.878 25.9057 108.103 25.8499 108.333 25.8332C108.477 25.8391 108.62 25.8107 108.75 25.7499C108.891 25.7307 109.03 25.7024 109.167 25.6666C109.333 25.6666 109.417 25.5832 109.583 25.5832C109.667 25.5832 109.833 25.4999 109.833 25.4166V26.3332H109.917ZM118 27.4166L118.333 29.0832C118.163 29.1249 117.996 29.1807 117.833 29.2499C117.591 29.3233 117.336 29.3516 117.083 29.3332C116.599 29.3466 116.117 29.2615 115.667 29.0832C115.28 28.9532 114.954 28.6865 114.75 28.3332C114.542 27.9188 114.428 27.4635 114.417 26.9999V22.7499H113.333V21.0832H114.417V19.0832H116.667V21.0832H118.167V22.7499H116.667V26.7499C116.647 26.9216 116.675 27.0949 116.75 27.2499L117 27.4999C117.125 27.5749 117.273 27.6049 117.417 27.5832H117.75C117.833 27.5832 117.917 27.4166 118 27.4166ZM125.75 21.9999C125.398 21.6553 124.97 21.3983 124.5 21.2499C124.017 21.0859 123.51 21.0015 123 20.9999C122.273 20.9774 121.554 21.15 120.917 21.4999C120.306 21.8479 119.813 22.3702 119.5 22.9999C119.15 23.6971 118.978 24.4701 119 25.2499C118.988 26.0291 119.159 26.7999 119.5 27.4999C119.836 28.1129 120.324 28.6294 120.917 28.9999C121.584 29.35 122.33 29.5222 123.083 29.4999C123.685 29.5266 124.284 29.4125 124.833 29.1666C125.309 28.989 125.737 28.7038 126.083 28.3332C126.434 27.9657 126.667 27.5016 126.75 26.9999L124.667 26.8332C124.583 26.9999 124.5 27.2499 124.333 27.3332C124.167 27.4166 124 27.5832 123.833 27.6666C123.618 27.735 123.392 27.7632 123.167 27.7499C122.817 27.7563 122.472 27.67 122.167 27.4999C121.905 27.3211 121.679 27.095 121.5 26.8332C121.33 26.4978 121.244 26.126 121.25 25.7499H126.833V25.1666C126.86 24.5383 126.746 23.912 126.5 23.3332C126.471 23.072 126.39 22.8193 126.261 22.5902C126.132 22.3611 125.958 22.1603 125.75 21.9999ZM121.333 24.3332C121.327 24.036 121.414 23.7443 121.583 23.4999C121.732 23.2414 121.93 23.0148 122.167 22.8332C122.442 22.6632 122.76 22.5766 123.083 22.5832C123.381 22.5765 123.672 22.664 123.917 22.8332C124.151 22.9832 124.35 23.1832 124.5 23.4166C124.658 23.6666 124.745 23.9549 124.75 24.2499H121.333V24.3332ZM138.333 18.8332C137.696 18.4833 136.977 18.3106 136.25 18.3332H131.917V29.2499H134.25V25.7499H136.167C136.92 25.7724 137.667 25.5999 138.333 25.2499C138.912 24.9633 139.38 24.4949 139.667 23.9166C139.995 23.3311 140.167 22.6711 140.167 21.9999C140.167 21.3287 139.995 20.6687 139.667 20.0832C139.352 19.5465 138.889 19.1123 138.333 18.8332ZM137.5 22.9999C137.345 23.2806 137.114 23.5117 136.833 23.6666C136.502 23.8466 136.128 23.9332 135.75 23.9166H134.167V20.1666H135.75C136.128 20.1499 136.502 20.2366 136.833 20.4166C137.114 20.5716 137.345 20.8032 137.5 21.0832C137.67 21.3582 137.757 21.6766 137.75 21.9999C137.757 22.3499 137.67 22.6949 137.5 22.9999ZM146.083 20.9166C146.25 20.9166 146.333 20.9166 146.417 20.9999V22.9999C146.28 22.9641 146.14 22.9363 146 22.9166H145.5C145.177 22.9098 144.858 22.9966 144.583 23.1666C144.331 23.2935 144.127 23.498 144 23.7499C143.83 24.0249 143.743 24.3432 143.75 24.6666V29.3332H141.5V21.1666H143.667V22.5832H143.75C143.878 22.1283 144.139 21.7221 144.5 21.4166C144.859 21.1439 145.299 20.9975 145.75 20.9999C145.833 20.9166 145.917 20.9166 146.083 20.9166ZM154.75 22.9166C154.463 22.2694 153.963 21.74 153.333 21.4166C152.666 21.0663 151.92 20.8941 151.167 20.9166C150.414 20.9042 149.671 21.0758 149 21.4166C148.389 21.7646 147.896 22.2868 147.583 22.9166C147.233 23.6138 147.062 24.3868 147.083 25.1666C147.061 25.9199 147.233 26.6666 147.583 27.3332C147.871 27.9803 148.37 28.5096 149 28.8332C149.675 29.1624 150.416 29.3335 151.167 29.3335C151.918 29.3335 152.658 29.1624 153.333 28.8332C153.944 28.4854 154.438 27.9631 154.75 27.3332C155.091 26.6626 155.263 25.9188 155.25 25.1666C155.262 24.3877 155.091 23.6169 154.75 22.9166ZM152.75 26.4166C152.606 26.7516 152.408 27.0607 152.167 27.3332C152.044 27.4474 151.9 27.5357 151.742 27.5929C151.585 27.6502 151.417 27.6752 151.25 27.6666C151.082 27.6831 150.912 27.6618 150.754 27.6041C150.595 27.5464 150.451 27.4538 150.333 27.3332C150.074 27.0745 149.874 26.7614 149.75 26.4166C149.613 26.0148 149.557 25.5901 149.583 25.1666C149.592 24.745 149.648 24.3258 149.75 23.9166C149.895 23.5824 150.092 23.2724 150.333 22.9999C150.456 22.886 150.601 22.7978 150.758 22.7405C150.915 22.6833 151.083 22.6581 151.25 22.6666C151.418 22.6508 151.587 22.6725 151.746 22.7302C151.904 22.7878 152.048 22.8799 152.167 22.9999C152.427 23.2582 152.626 23.5716 152.75 23.9166C152.973 24.7351 152.973 25.5981 152.75 26.4166Z" fill="#111827"/>
</g>
<defs>
<clipPath id="clip0_381_1895">
<rect width="155.833" height="25" fill="white" transform="translate(0 11)"/>
</clipPath>
</defs>
</svg>
